# 3ds Max Wavefront OBJ Exporter v0.97b - (c)2007 guruware
# File Created: 17.09.2017 19:00:53

mtllib Banner_base.mtl

#
# object Banner_base
#

v  2539.4883 -523.7772 374.6111
v  2476.6294 -567.3182 374.6154
v  2484.9373 -488.3246 361.5267
v  2468.3215 -488.3246 361.5267
v  2484.9373 -472.1112 361.5267
v  2539.4885 -436.6703 374.6143
v  2484.9373 -472.1147 -858.3843
v  2484.9373 -488.3246 -858.3861
v  2468.3213 -472.1112 -858.3861
v  2468.3215 -472.1110 361.5267
v  2468.3215 -488.3317 -858.3825
v  2413.7705 -436.6775 374.6110
v  2413.7700 -523.7701 374.6146
v  2476.6294 -393.1251 374.6123
v  2476.7041 -505.5157 -932.5872
v  2476.7041 -480.5189 -993.5438
v  2483.3794 -480.5189 -920.4307
v  2476.7041 -455.5223 -932.5874
v  2476.7041 -469.3887 -920.4307
v  2492.5952 -480.5680 -856.0748
v  2476.7041 -502.4720 -856.0742
v  2476.7041 -491.6494 -920.4307
v  2470.0288 -480.5191 -920.4307
v  2476.7041 -458.4387 -856.0712
v  2460.8130 -480.5708 -856.0734
# 25 vertices

vn 0.1733 -0.0951 -0.9803
vn -0.0000 -0.1746 -0.9846
vn 0.4029 -0.3663 -0.8388
vn -0.4029 -0.3663 -0.8388
vn 0.3769 0.4463 -0.8116
vn 0.1593 0.0934 -0.9828
vn 0.7072 0.7070 -0.0000
vn 0.7073 -0.7069 0.0000
vn -0.7071 0.7072 -0.0000
vn -0.3857 0.3826 -0.8396
vn -0.7069 -0.7073 0.0000
vn -0.1734 0.0951 -0.9803
vn -0.1734 -0.0951 -0.9803
vn 0.0041 0.1630 -0.9866
vn 0.0000 -0.9977 0.0672
vn 0.0000 0.0000 -1.0000
vn 1.0000 -0.0056 -0.0050
vn 0.0000 0.9977 0.0672
vn -0.0051 0.8896 0.4566
vn 0.9911 -0.0073 -0.1331
vn 0.0047 -0.9840 -0.1784
vn 0.0054 -0.8895 0.4569
vn -1.0000 0.0056 -0.0054
vn -0.0045 0.9837 -0.1796
vn -0.9912 0.0025 -0.1326
# 25 vertex normals

vt 0.0000 1.0000 0.0000
vt 1.0000 1.0000 0.0000
vt 0.0000 0.0000 0.0000
vt 1.0000 0.0000 0.0000
vt 0.0578 10.6865 0.0000
vt 0.0573 2.9963 0.0000
vt 0.6119 10.6862 0.0000
vt 0.5011 10.6863 0.0000
vt -0.0530 10.6865 0.0000
vt 0.5000 0.0000 0.0000
vt 0.4369 0.2027 0.0000
vt 0.0000 0.5000 0.0000
vt 0.5261 0.5000 0.0000
vt 0.4369 0.7973 0.0000
vt 0.6686 0.6631 0.0000
vt 0.9672 0.5008 0.0000
vt 0.9672 0.3480 0.0000
vt 0.6686 0.3369 0.0000
vt 0.9672 0.6536 0.0000
# 19 texture coords

o Banner_base
g Banner_base
usemtl Banner_Mat
s 1
f 1/1/1 2/2/2 3/3/3 
f 2/2/2 4/4/4 3/3/3 
f 5/3/5 1/2/1 3/4/3 
f 6/1/6 1/2/1 5/3/5 
f 7/1/7 3/5/3 8/6/8 
f 5/7/5 3/5/3 7/1/7 
f 5/7/5 7/1/7 9/1/9 
f 10/8/10 5/7/5 9/1/9 
f 11/6/11 10/8/10 9/1/9 
f 4/9/4 10/8/10 11/6/11 
f 4/9/4 11/6/11 8/6/8 
f 3/5/3 4/9/4 8/6/8 
f 4/3/4 12/2/12 10/4/10 
f 13/1/13 12/2/12 4/3/4 
f 12/1/12 14/2/14 10/10/10 
f 2/1/2 13/2/13 4/10/4 
f 5/4/5 10/3/10 6/2/6 
f 14/1/14 6/2/6 10/3/10 
f 15/11/15 16/12/16 17/13/17 
f 16/12/16 18/14/18 17/13/17 
f 17/13/17 18/14/18 19/15/19 
f 17/13/17 19/15/19 20/16/20 
f 20/16/20 21/17/21 17/13/17 
f 17/13/17 21/17/21 22/18/22 
f 22/18/22 15/11/15 17/13/17 
f 23/13/23 15/11/15 22/18/22 
f 15/11/15 23/13/23 16/12/16 
f 23/13/23 18/14/18 16/12/16 
f 19/15/19 18/14/18 23/13/23 
f 19/15/19 23/13/23 24/19/24 
f 20/16/20 19/15/19 24/19/24 
f 25/16/25 24/19/24 23/13/23 
f 23/13/23 22/18/22 25/16/25 
f 21/17/21 25/16/25 22/18/22 
# 0 polygons - 34 triangles

