# 3ds Max Wavefront OBJ Exporter v0.97b - (c)2007 guruware
# File Created: 17.09.2017 18:44:03

mtllib Cama_colchon.mtl

#
# object Colchon
#

v  -1025.0684 400.9268 -820.7120
v  -1017.4727 400.9268 -831.5761
v  -1033.5488 411.1260 -831.5761
v  -1033.5488 400.9268 -816.2018
v  -2014.1917 411.1260 -831.5761
v  -2014.1917 400.9268 -816.2018
v  -2030.2677 400.9268 -831.5761
v  -2022.6720 400.9268 -820.7120
v  -1017.4727 400.9269 -2765.3291
v  -1033.5488 411.1262 -2765.3291
v  -2014.1917 411.1262 -2765.3291
v  -2030.2677 400.9269 -2765.3291
v  -1022.5240 400.9269 -2777.9700
v  -1033.5488 400.9269 -2784.1201
v  -2014.1917 400.9269 -2784.1201
v  -2025.2163 400.9269 -2777.9700
v  -1025.0686 186.3178 -820.7118
v  -1017.4730 186.3178 -831.5759
v  -2014.1915 186.3178 -816.2015
v  -1033.5491 186.3178 -816.2015
v  -2030.2676 186.3178 -831.5759
v  -2022.6719 186.3178 -820.7118
v  -1017.4730 186.3179 -2765.3291
v  -2030.2676 186.3179 -2765.3291
v  -1022.5242 186.3179 -2777.9702
v  -1033.5491 186.3179 -2784.1201
v  -2014.1915 186.3179 -2784.1201
v  -2025.2163 186.3179 -2777.9702
# 28 vertices

vn 0.3919 0.8034 0.4483
vn 0.5301 0.8356 0.1440
vn 0.2448 0.9358 0.2536
vn 0.1216 0.8271 0.5487
vn -0.2590 0.9278 0.2687
vn -0.1665 0.8515 0.4972
vn -0.4925 0.8529 0.1734
vn 0.0000 1.0000 -0.0000
vn 0.4755 0.8672 -0.1481
vn 0.2625 0.9372 -0.2298
vn -0.2419 0.9477 -0.2082
vn -0.5334 0.8407 -0.0934
vn 0.1541 0.8970 -0.4144
vn -0.1084 0.8737 -0.4742
vn -0.3854 0.8529 -0.3520
vn 0.8196 -0.0000 0.5730
vn 0.9538 -0.0000 0.3004
vn 0.0000 0.0000 1.0000
vn -0.9538 -0.0000 0.3004
vn -0.8196 0.0000 0.5730
vn 0.9820 -0.0000 -0.1890
vn 0.9820 -0.0000 -0.1889
vn -0.9820 -0.0000 -0.1889
vn 0.9286 -0.0000 -0.3711
vn 0.4872 -0.0000 -0.8733
vn 0.2517 0.0000 -0.9678
vn -0.2517 0.0000 -0.9678
vn -0.4872 0.0000 -0.8733
vn -0.9286 -0.0000 -0.3711
# 29 vertex normals

vt 0.9845 0.0090 0.0000
vt 0.9919 0.0144 0.0000
vt 0.9763 0.0144 0.0000
vt 0.9763 0.0067 0.0000
vt 0.0215 0.0144 0.0000
vt 0.0215 0.0067 0.0000
vt 0.0058 0.0144 0.0000
vt 0.0132 0.0090 0.0000
vt 0.9919 0.9903 0.0000
vt 0.9763 0.9903 0.0000
vt 0.0215 0.9903 0.0000
vt 0.0058 0.9903 0.0000
vt 0.9870 0.9967 0.0000
vt 0.9763 0.9998 0.0000
vt 0.0215 0.9998 0.0000
vt 0.0107 0.9967 0.0000
vt 0.9888 0.9982 0.0000
vt 0.7786 0.9982 0.0000
vt 0.7786 0.9927 0.0000
vt 0.9888 0.9927 0.0000
vt 0.0220 0.9991 0.0000
vt 0.0220 0.7393 0.0000
vt 0.9756 0.7393 0.0000
vt 0.9756 0.9991 0.0000
vt 0.0046 0.0112 0.0000
vt 0.2129 0.0112 0.0000
vt 0.2129 0.0057 0.0000
vt 0.0046 0.0057 0.0000
vt 0.7786 0.0073 0.0000
vt 0.9888 0.0073 0.0000
vt 0.0046 0.9935 0.0000
vt 0.2129 0.9935 0.0000
vt 0.7786 0.0009 0.0000
vt 0.9888 0.0009 0.0000
vt 0.9866 0.9911 0.0000
vt 0.9866 0.7390 0.0000
vt 0.9759 0.7390 0.0000
vt 0.9759 0.9911 0.0000
vt 0.0217 0.7390 0.0000
vt 0.0217 0.9911 0.0000
vt 0.0110 0.7390 0.0000
vt 0.0110 0.9911 0.0000
vt 0.0046 0.9999 0.0000
vt 0.2129 0.9999 0.0000
# 44 texture coords

o Colchon
g Colchon
usemtl bed_dsk
s 1
f 1/1/1 2/2/2 3/3/3 
f 1/1/1 3/3/3 4/4/4 
f 3/3/3 5/5/5 6/6/6 
f 3/3/3 6/6/6 4/4/4 
f 6/6/6 5/5/5 7/7/7 
f 6/6/6 7/7/7 8/8/8 
f 9/9/9 10/10/10 3/3/3 
f 9/9/9 3/3/3 2/2/2 
f 3/3/3 10/10/10 11/11/11 
f 3/3/3 11/11/11 5/5/5 
f 11/11/11 12/12/12 7/7/7 
f 11/11/11 7/7/7 5/5/5 
f 9/9/9 13/13/8 14/14/13 
f 9/9/9 14/14/13 10/10/10 
f 14/14/13 15/15/14 11/11/11 
f 14/14/13 11/11/11 10/10/10 
f 11/11/11 15/15/14 16/16/15 
f 11/11/11 16/16/15 12/12/12 
f 1/17/16 17/18/16 18/19/17 
f 1/17/16 18/19/17 2/20/17 
f 6/21/18 19/22/18 20/23/18 
f 6/21/18 20/23/18 4/24/18 
f 7/25/19 21/26/19 22/27/20 
f 7/25/19 22/27/20 8/28/20 
f 2/20/17 18/19/17 23/29/21 
f 2/20/17 23/29/21 9/30/22 
f 12/31/23 24/32/23 21/26/19 
f 12/31/23 21/26/19 7/25/19 
f 9/30/22 23/29/21 25/33/24 
f 9/30/22 25/33/24 13/34/24 
f 13/35/25 25/36/25 26/37/26 
f 13/35/25 26/37/26 14/38/26 
f 14/38/26 26/37/26 27/39/27 
f 14/38/26 27/39/27 15/40/27 
f 15/40/27 27/39/27 28/41/28 
f 15/40/27 28/41/28 16/42/28 
f 16/43/29 28/44/29 24/32/23 
f 16/43/29 24/32/23 12/31/23 
# 0 polygons - 38 triangles

