# 3ds Max Wavefront OBJ Exporter v0.97b - (c)2007 guruware
# File Created: 21.11.2017 17:33:32

mtllib Cama_colchon1.mtl

#
# object Colchon
#

v  -1025.0684 400.9268 -820.7120
v  -1033.5487 411.1260 -831.5760
v  -1017.4727 400.9268 -831.5760
v  -1033.5487 400.9268 -816.2017
v  -2014.1914 400.9268 -816.2017
v  -2014.1914 411.1260 -831.5760
v  -2030.2675 400.9268 -831.5760
v  -2022.6718 400.9268 -820.7120
v  -1017.4727 400.9269 -2765.3289
v  -1033.5487 411.1261 -2765.3289
v  -2014.1914 411.1261 -2765.3289
v  -2030.2675 400.9269 -2765.3289
v  -1033.5487 400.9269 -2784.1199
v  -1022.5239 400.9269 -2777.9697
v  -2014.1914 400.9269 -2784.1199
v  -2025.2162 400.9269 -2777.9697
v  -1017.4729 186.3177 -831.5758
v  -1025.0686 186.3177 -820.7117
v  -1033.5490 186.3177 -816.2015
v  -2014.1914 186.3177 -816.2015
v  -2022.6718 186.3177 -820.7117
v  -2030.2673 186.3177 -831.5758
v  -1017.4729 186.3178 -2765.3291
v  -2030.2673 186.3178 -2765.3291
v  -1022.5242 186.3178 -2777.9697
v  -1033.5490 186.3178 -2784.1201
v  -2014.1914 186.3178 -2784.1201
v  -2025.2161 186.3178 -2777.9697
# 28 vertices

vn -0.3919 -0.8034 -0.4483
vn -0.2448 -0.9358 -0.2536
vn -0.5301 -0.8356 -0.1440
vn -0.1216 -0.8271 -0.5487
vn 0.1665 -0.8515 -0.4972
vn 0.2590 -0.9278 -0.2687
vn 0.4925 -0.8529 -0.1734
vn 0.0000 -1.0000 -0.0000
vn -0.4755 -0.8672 0.1481
vn -0.2625 -0.9372 0.2298
vn 0.2419 -0.9477 0.2082
vn 0.5334 -0.8407 0.0934
vn -0.1541 -0.8970 0.4144
vn 0.1084 -0.8737 0.4742
vn 0.3854 -0.8529 0.3520
vn -0.8196 0.0000 -0.5730
vn -0.9538 0.0000 -0.3004
vn 0.0000 -0.0000 -1.0000
vn 0.9538 0.0000 -0.3004
vn 0.8196 -0.0000 -0.5730
vn -0.9820 0.0000 0.1890
vn -0.9820 0.0000 0.1889
vn 0.9820 0.0000 0.1889
vn -0.9286 0.0000 0.3711
vn -0.4872 0.0000 0.8733
vn -0.2517 -0.0000 0.9678
vn 0.2517 -0.0000 0.9678
vn 0.4872 -0.0000 0.8733
vn 0.9286 0.0000 0.3711
# 29 vertex normals

vt 0.9845 0.0090 0.0000
vt 0.9763 0.0144 0.0000
vt 0.9919 0.0144 0.0000
vt 0.9763 0.0067 0.0000
vt 0.0215 0.0067 0.0000
vt 0.0215 0.0144 0.0000
vt 0.0058 0.0144 0.0000
vt 0.0132 0.0090 0.0000
vt 0.9919 0.9903 0.0000
vt 0.9763 0.9903 0.0000
vt 0.0215 0.9903 0.0000
vt 0.0058 0.9903 0.0000
vt 0.9763 0.9998 0.0000
vt 0.9870 0.9967 0.0000
vt 0.0215 0.9998 0.0000
vt 0.0107 0.9967 0.0000
vt 0.9888 0.9982 0.0000
vt 0.7786 0.9927 0.0000
vt 0.7786 0.9982 0.0000
vt 0.9888 0.9927 0.0000
vt 0.0220 0.9991 0.0000
vt 0.9756 0.7393 0.0000
vt 0.0220 0.7393 0.0000
vt 0.9756 0.9991 0.0000
vt 0.0046 0.0112 0.0000
vt 0.2129 0.0057 0.0000
vt 0.2129 0.0112 0.0000
vt 0.0046 0.0057 0.0000
vt 0.7786 0.0073 0.0000
vt 0.9888 0.0073 0.0000
vt 0.0046 0.9935 0.0000
vt 0.2129 0.9935 0.0000
vt 0.7786 0.0009 0.0000
vt 0.9888 0.0009 0.0000
vt 0.9866 0.9911 0.0000
vt 0.9759 0.7390 0.0000
vt 0.9866 0.7390 0.0000
vt 0.9759 0.9911 0.0000
vt 0.0217 0.7390 0.0000
vt 0.0217 0.9911 0.0000
vt 0.0110 0.7390 0.0000
vt 0.0110 0.9911 0.0000
vt 0.0046 0.9999 0.0000
vt 0.2129 0.9999 0.0000
# 44 texture coords

o Colchon
g Colchon
usemtl bed_dsk
s 1
f 1/1/1 2/2/2 3/3/3 
f 1/1/1 4/4/4 2/2/2 
f 2/2/2 5/5/5 6/6/6 
f 2/2/2 4/4/4 5/5/5 
f 5/5/5 7/7/7 6/6/6 
f 5/5/5 8/8/8 7/7/7 
f 9/9/9 2/2/2 10/10/10 
f 9/9/9 3/3/3 2/2/2 
f 2/2/2 11/11/11 10/10/10 
f 2/2/2 6/6/6 11/11/11 
f 11/11/11 7/7/7 12/12/12 
f 11/11/11 6/6/6 7/7/7 
f 9/9/9 13/13/13 14/14/8 
f 9/9/9 10/10/10 13/13/13 
f 13/13/13 11/11/11 15/15/14 
f 13/13/13 10/10/10 11/11/11 
f 11/11/11 16/16/15 15/15/14 
f 11/11/11 12/12/12 16/16/15 
f 1/17/16 17/18/17 18/19/16 
f 1/17/16 3/20/17 17/18/17 
f 5/21/18 19/22/18 20/23/18 
f 5/21/18 4/24/18 19/22/18 
f 7/25/19 21/26/20 22/27/19 
f 7/25/19 8/28/20 21/26/20 
f 3/20/17 23/29/21 17/18/17 
f 3/20/17 9/30/22 23/29/21 
f 12/31/23 22/27/19 24/32/23 
f 12/31/23 7/25/19 22/27/19 
f 9/30/22 25/33/24 23/29/21 
f 9/30/22 14/34/24 25/33/24 
f 14/35/25 26/36/26 25/37/25 
f 14/35/25 13/38/26 26/36/26 
f 13/38/26 27/39/27 26/36/26 
f 13/38/26 15/40/27 27/39/27 
f 15/40/27 28/41/28 27/39/27 
f 15/40/27 16/42/28 28/41/28 
f 16/43/29 24/32/23 28/44/29 
f 16/43/29 12/31/23 24/32/23 
# 0 polygons - 38 triangles

